#!OML:ASF I:\Actors\actors\Patient Classification 2\Patient 1\Session 1\actor1.ASF
:FULLY-SPECIFIED
:DEGREES
607
root -0.769587 18.9024 4.81905 16.0883 26.581 0.548284
lowerback 26.6054 6.2531 16.812
upperback 3.38876 13.9458 8.66179
thorax -9.11634 6.08858 -3.93638
lowerneck -15.2843 -8.28998 -3.56248
upperneck 7.55136 -12.3953 17.4696
head 6.22903 -4.8537 4.84182
rclavicle -2.44903e-013 -1.24042e-013
rhumerus 0.148111 -28.3088 -9.11427
rradius 36.2599
rwrist 42.7915
rhand -13.4069 -40.2116
rfingers 7.12502
rthumb 12.7009 -69.8054
lclavicle -2.44903e-013 -1.24042e-013
lhumerus -77.2834 35.1668 31.5073
lradius 54.4431
lwrist 60.1435
lhand -20.3759 3.15089
lfingers 7.12502
lthumb 5.97693 33.0466
rfemur 0 0 0
rtibia 0
rfoot 0 0
rtoes 0
lfemur -31.8965 -16.0106 -8.12485
ltibia 23.2297
lfoot -9.37212 2.50157
ltoes -57.1274
608
root -0.750028 18.9029 4.82787 16.025 27.228 0.678534
lowerback 26.3154 6.22854 17.1871
upperback 3.25747 14.0222 8.9236
thorax -9.09807 6.11656 -3.82011
lowerneck -15.6059 -8.78848 -3.80546
upperneck 7.14724 -13.0035 17.7752
head 6.26561 -5.13645 4.88947
rclavicle 1.06549e-013 6.67916e-014
rhumerus -1.96617 -28.9884 -8.16628
rradius 36.2303
rwrist 42.812
rhand -13.0949 -40.4684
rfingers 7.12502
rthumb 13.0017 -70.0433
lclavicle 1.06549e-013 6.67916e-014
lhumerus -78.8687 35.7928 27.6643
lradius 55.5745
lwrist 61.7004
lhand -22.525 1.51963
lfingers 7.12502
lthumb 3.90178 31.4637
rfemur 0 0 0
rtibia 0
rfoot 0 0
rtoes 0
lfemur -31.8809 -16.2926 -8.28902
ltibia 23.2713
lfoot -9.25287 2.14764
ltoes -57.1989
609
root -0.733821 18.9037 4.83442 15.9166 27.7894 0.773816
lowerback 26.1739 6.19053 17.5639
upperback 3.09443 14.1168 9.15206
thorax -9.18312 6.1381 -3.76883
lowerneck -15.8726 -9.20386 -3.88848
upperneck 6.72164 -13.5186 18.0594
head 6.26617 -5.37474 4.9165
rclavicle 3.49861e-014 -6.36111e-015
rhumerus -4.16716 -29.3525 -7.16074
rradius 36.2962
rwrist 42.5586
rhand -13.0334 -40.6597
rfingers 7.12502
rthumb 13.061 -70.2308
lclavicle 3.49861e-014 -6.36111e-015
lhumerus -80.4148 36.2775 23.974
lradius 57.1506
lwrist 63.5839
lhand -24.5889 -0.235608
lfingers 7.12502
lthumb 1.90864 29.7356
rfemur 0 0 0
rtibia 0
rfoot 0 0
rtoes 0
lfemur -31.8111 -16.3876 -8.47465
ltibia 23.298
lfoot -9.09066 1.66605
ltoes -57.1845
610
root -0.720358 18.9045 4.84032 15.7449 28.3124 0.797905
lowerback 26.1257 6.13636 17.9971
upperback 2.91869 14.2264 9.34697
thorax -9.30805 6.15686 -3.79746
lowerneck -15.9414 -9.60557 -3.97813
upperneck 6.12349 -14.0064 18.5721
head 6.19982 -5.60512 5.02656
rclavicle -4.6118e-014 9.54166e-014
rhumerus -6.42755 -29.5318 -6.14817
rradius 36.367
rwrist 42.2939
rhand -12.7722 -40.8886
rfingers 7.12502
rthumb 13.3128 -70.4433
lclavicle -4.6118e-014 9.54166e-014
lhumerus -81.7543 36.6029 20.5863
lradius 59.1716
lwrist 65.7818
lhand -26.6394 -2.21427
lfingers 7.12502
lthumb -0.07181 27.7655
rfemur 0 0 0
rtibia 0
rfoot 0 0
rtoes 0
lfemur -31.7097 -16.5666 -8.54592
ltibia 23.3166
lfoot -8.98431 1.27246
ltoes -57.082
611
root -0.705342 18.9035 4.8457 15.6393 28.7998 0.890268
lowerback 25.9925 6.10225 18.3424
upperback 2.74974 14.3153 9.53563
thorax -9.40225 6.17382 -3.77171
lowerneck -15.8378 -10.0063 -4.14508
upperneck 5.45739 -14.4566 19.0416
head 6.08327 -5.8393 5.14506
rclavicle 7.95139e-015 -2.8625e-014
rhumerus -8.85061 -29.2373 -5.02939
rradius 36.5867
rwrist 41.9838
rhand -12.3319 -41.2425
rfingers 7.12502
rthumb 13.7372 -70.769
lclavicle 7.95139e-015 -2.8625e-014
lhumerus -82.8655 36.7785 17.5781
lradius 61.5231
lwrist 68.2432
lhand -28.8196 -4.51032
lfingers 7.12502
lthumb -2.17752 25.4583
rfemur 0 0 0
rtibia 0
rfoot 0 0
rtoes 0
lfemur -31.6447 -16.8569 -8.6425
ltibia 23.331
lfoot -8.93741 1.0339
ltoes -57.0572
612
root -0.689112 18.9012 4.85146 15.6394 29.2407 1.09653
lowerback 25.7295 6.10094 18.5302
upperback 2.61101 14.365 9.73217
thorax -9.43671 6.18932 -3.63133
lowerneck -15.7125 -10.3987 -4.38214
upperneck 4.8035 -14.8773 19.4716
head 5.96824 -6.06655 5.26621
rclavicle 6.52014e-014 3.18055e-014
rhumerus -11.2496 -28.6779 -3.91259
rradius 36.8955
rwrist 41.6497
rhand -11.9549 -41.5233
rfingers 7.12502
rthumb 14.1004 -71.0249
lclavicle 6.52014e-014 3.18055e-014
lhumerus -83.6458 36.8818 15.003
lradius 64.0202
lwrist 70.7923
lhand -31.2371 -7.20822
lfingers 7.12502
lthumb -4.51205 22.7237
rfemur 0 0 0
rtibia 0
rfoot 0 0
rtoes 0
lfemur -31.6135 -17.0739 -8.87163
ltibia 23.3392
lfoot -8.86458 0.781236
ltoes -57.0359
613
root -0.673537 18.8983 4.85564 15.6148 29.6542 1.25129
lowerback 25.4786 6.07499 18.7509
upperback 2.4839 14.392 9.93146
thorax -9.46063 6.19445 -3.49811
lowerneck -15.573 -10.8169 -4.77687
upperneck 4.12441 -15.3195 20.0993
head 5.88237 -6.2981 5.47117
rclavicle 3.97569e-014 -9.54166e-014
rhumerus -13.3256 -28.5636 -3.01368
rradius 36.9748
rwrist 41.5435
rhand -12.226 -41.2801
rfingers 7.12502
rthumb 13.8392 -70.7997
lclavicle 3.97569e-014 -9.54166e-014
lhumerus -84.0612 36.9098 12.8647
lradius 66.7149
lwrist 73.435
lhand -34.084 -10.4083
lfingers 7.12502
lthumb -7.26062 19.4471
rfemur 0 0 0
rtibia 0
rfoot 0 0
rtoes 0
lfemur -31.5608 -17.1281 -9.10336
ltibia 23.3386
lfoot -8.7703 0.435851
ltoes -57.0269
614
root -0.657144 18.895 4.85656 15.5629 30.0155 1.36085
lowerback 25.2833 6.03221 19.0846
upperback 2.34262 14.4336 10.0709
thorax -9.48457 6.19742 -3.49394
lowerneck -15.3923 -11.2836 -5.30361
upperneck 3.46551 -15.8248 20.9085
head 5.84065 -6.55288 5.74492
rclavicle 3.02153e-014 -6.36111e-015
rhumerus -15.3377 -28.9637 -2.22093
rradius 36.9555
rwrist 41.9268
rhand -13.2476 -40.7347
rfingers 7.12502
rthumb 12.8545 -70.3188
lclavicle 3.02153e-014 -6.36111e-015
lhumerus -84.0761 36.8856 11.0574
lradius 69.591
lwrist 76.0461
lhand -36.8703 -14.4474
lfingers 7.12502
lthumb -9.94954 15.2975
rfemur 0 0 0
rtibia 0
rfoot 0 0
rtoes 0
lfemur -31.4876 -17.0526 -9.34027
ltibia 23.34
lfoot -8.68681 0.00501641
ltoes -57.0216
615
root -0.640605 18.8927 4.85773 15.5492 30.313 1.49147
lowerback 25.1376 6.0235 19.3275
upperback 2.11858 14.5239 10.1879
thorax -9.64152 6.20758 -3.49702
lowerneck -14.9698 -11.6946 -5.87054
upperneck 2.90252 -16.264 21.7102
head 5.79009 -6.78702 6.04055
rclavicle -7.63333e-014 -6.04305e-014
rhumerus -17.4709 -28.9595 -1.40939
rradius 37.0474
rwrist 42.111
rhand -14.2895 -40.6972
rfingers 7.12502
rthumb 11.85 -70.3419
lclavicle -7.63333e-014 -6.04305e-014
lhumerus -83.8205 36.7909 9.37068
lradius 72.5907
lwrist 78.561
lhand -39.1655 -18.8932
lfingers 7.12502
lthumb -12.1632 10.7332
rfemur 0 0 0
rtibia 0
rfoot 0 0
rtoes 0
lfemur -31.4315 -16.9445 -9.59488
ltibia 23.3551
lfoot -8.59574 -0.473687
ltoes -56.9269
616
root -0.625675 18.8906 4.86049 15.5052 30.5649 1.60288
lowerback 25.0766 6.03073 19.5244
upperback 1.84742 14.6576 10.303
thorax -9.90522 6.2247 -3.50717
lowerneck -14.491 -11.9618 -6.21426
upperneck 2.51768 -16.5423 22.138
head 5.70712 -6.95595 6.20925
rclavicle 3.02153e-014 -3.81667e-014
rhumerus -19.7742 -28.079 -0.651816
rradius 37.2693
rwrist 41.2136
rhand -15.2641 -41.1794
rfingers 7.12502
rthumb 10.91 -70.876
lclavicle 3.02153e-014 -3.81667e-014
lhumerus -83.2977 36.761 7.78034
lradius 75.6987
lwrist 80.8838
lhand -41.1672 -23.412
lfingers 7.12502
lthumb -14.0928 6.09008
rfemur 0 0 0
rtibia 0
rfoot 0 0
rtoes 0
lfemur -31.3338 -16.7568 -9.85969
ltibia 23.3763
lfoot -8.47252 -1.01137
ltoes -56.8544
617
root -0.609952 18.888 4.86206 15.4442 30.7586 1.68943
lowerback 24.9535 6.03812 19.782
upperback 1.6691 14.767 10.418
thorax -10.0131 6.24857 -3.52144
lowerneck -14.3 -12.171 -6.32255
upperneck 2.29699 -16.7717 22.1666
head 5.65175 -7.09242 6.20947
rclavicle -6.67916e-014 -1.11319e-013
rhumerus -22.0857 -27.0385 0.0605061
rradius 37.5625
rwrist 40.4602
rhand -15.7229 -41.6742
rfingers 7.12502
rthumb 10.4675 -71.3936
lclavicle -6.67916e-014 -1.11319e-013
lhumerus -82.575 37.0007 6.32538
lradius 78.7994
lwrist 82.8524
lhand -42.6389 -28.0494
lfingers 7.12502
lthumb -15.5106 1.34845
rfemur 0 0 0
rtibia 0
rfoot 0 0
rtoes 0
lfemur -31.2197 -16.4275 -10.1616
ltibia 23.4032
lfoot -8.33787 -1.59543
ltoes -56.8604
618
root -0.593344 18.8862 4.86144 15.4179 30.8742 1.78029
lowerback 24.7339 6.05574 20.0196
upperback 1.58514 14.8372 10.5619
thorax -9.97413 6.27759 -3.46276
lowerneck -14.0997 -12.5182 -6.85805
upperneck 1.89388 -17.1303 22.5986
head 5.64344 -7.28853 6.38337
rclavicle -2.38542e-014 3.18055e-014
rhumerus -24.2206 -26.9545 1.06385
rradius 37.9473
rwrist 42.8122
rhand -12.274 -41.7576
rfingers 7.12502
rthumb 13.793 -71.2804
lclavicle -2.38542e-014 3.18055e-014
lhumerus -81.7505 37.4312 5.03113
lradius 81.9151
lwrist 84.5688
lhand -43.7075 -32.782
lfingers 7.12502
lthumb -16.5396 -3.46694
rfemur 0 0 0
rtibia 0
rfoot 0 0
rtoes 0
lfemur -31.154 -16.2256 -10.415
ltibia 23.4554
lfoot -8.30071 -1.93386
ltoes -56.8963
619
root -0.578616 18.8855 4.8606 15.3954 30.9068 1.84469
lowerback 24.5371 6.0929 20.2128
upperback 1.50567 14.9278 10.724
thorax -9.95489 6.31639 -3.37115
lowerneck -13.6591 -12.9784 -7.91928
upperneck 1.2355 -17.5778 23.6142
head 5.65485 -7.53666 6.81998
rclavicle -4.13472e-014 3.49861e-014
rhumerus -26.2044 -26.5155 1.81283
rradius 38.1495
rwrist 43.2627
rhand -10.5869 -41.5124
rfingers 7.12502
rthumb 15.4184 -70.9174
lclavicle -4.13472e-014 3.49861e-014
lhumerus -80.6253 37.9295 3.93568
lradius 85.1249
lwrist 85.8882
lhand -44.7008 -37.8365
lfingers 7.12502
lthumb -17.4957 -8.60379
rfemur 0 0 0
rtibia 0
rfoot 0 0
rtoes 0
lfemur -31.1115 -16.1798 -10.569
ltibia 23.5349
lfoot -8.35911 -2.01064
ltoes -56.9115
620
root -0.565201 18.8839 4.85991 15.3482 30.8932 1.80628
lowerback 24.3371 6.1507 20.3873
upperback 1.41264 15.0489 10.9248
thorax -9.96249 6.36818 -3.23599
lowerneck -13.2458 -13.3686 -8.83799
upperneck 0.733467 -17.9709 24.4413
head 5.68525 -7.75547 7.18166
rclavicle 6.36111e-014 0
rhumerus -28.1724 -26.0072 2.43957
rradius 38.312
rwrist 42.8007
rhand -9.90169 -41.5398
rfingers 7.12502
rthumb 16.0783 -70.8927
lclavicle 6.36111e-014 0
lhumerus -79.2726 38.5961 2.8717
lradius 88.4411
lwrist 86.7959
lhand -45.5184 -43.0487
lfingers 7.12502
lthumb -18.2825 -13.8879
rfemur 0 0 0
rtibia 0
rfoot 0 0
rtoes 0
lfemur -31.0938 -16.0667 -10.6249
ltibia 23.6234
lfoot -8.41765 -2.10715
ltoes -56.9204
621
root -0.551166 18.8805 4.85767 15.2601 30.8611 1.69072
lowerback 24.0544 6.13758 20.3617
upperback 1.37031 15.0061 11.2017
thorax -9.96242 6.36392 -2.87446
lowerneck -12.9151 -13.5473 -9.30357
upperneck 0.412215 -18.1422 24.9142
head 5.66592 -7.86465 7.39361
rclavicle -2.22639e-014 2.54444e-014
rhumerus -29.7233 -25.3229 2.66785
rradius 38.4954
rwrist 42.4315
rhand -8.79836 -42.4058
rfingers 7.12502
rthumb 17.1405 -71.6697
lclavicle -2.22639e-014 2.54444e-014
lhumerus -78.2325 39.5652 1.27832
lradius 91.7863
lwrist 87.3841
lhand -46.2654 -48.1209
lfingers 7.12502
lthumb -19.0009 -19.0289
rfemur 0 0 0
rtibia 0
rfoot 0 0
rtoes 0
lfemur -31.0776 -16.047 -10.5662
ltibia 23.7119
lfoot -8.55984 -2.13711
ltoes -56.9555
622
root -0.537409 18.8765 4.85507 15.2049 30.7477 1.64789
lowerback 23.9013 6.10528 20.5095
upperback 1.27239 14.994 11.2644
thorax -9.98525 6.34825 -2.85388
lowerneck -12.3356 -13.7749 -9.91578
upperneck -0.184322 -18.3479 25.7628
head 5.59442 -8.01129 7.75861
rclavicle -6.83819e-014 -1.43125e-013
rhumerus -31.483 -23.9299 2.65547
rradius 38.6418
rwrist 42.1797
rhand -7.45407 -43.6175
rfingers 7.12502
rthumb 18.4341 -72.7641
lclavicle -6.83819e-014 -1.43125e-013
lhumerus -76.5475 40.8556 -0.218085
lradius 95.0897
lwrist 87.602
lhand -46.8085 -53.1308
lfingers 7.12502
lthumb -19.5232 -24.091
rfemur 0 0 0
rtibia 0
rfoot 0 0
rtoes 0
lfemur -31.0427 -16.1472 -10.5337
ltibia 23.7921
lfoot -8.79309 -2.02394
ltoes -56.9591
